<?xml version="1.0" encoding="utf-8"?>
<!-- Generator: Adobe Illustrator 24.2.1, SVG Export Plug-In . SVG Version: 6.00 Build 0)  -->
<svg version="1.1" xmlns="http://www.w3.org/2000/svg" xmlns:xlink="http://www.w3.org/1999/xlink" x="0px" y="0px"
	 viewBox="0 0 685 685" style="enable-background:new 0 0 685 685;" xml:space="preserve">
<style type="text/css">
	.st0{fill:none;}
	.st1{fill:#34C0F7;}
	.st2{fill:#7947E8;}
	.st3{fill:#EB628C;}
	.st4{fill:#F89B79;}
	.st5{fill:#B548EF;}
	.st6{fill:#93EB8F;}
	.st7{fill:#506DE8;}
	.st8{fill:#FFDF89;}
	.st9{fill:#FFFFFF;}
</style>
<g id="Layer_1">
	<rect x="1730.6" y="725" class="st0" width="4" height="4"/>
	<ellipse id="Ellipse_1" class="st1" cx="93.7" cy="342.5" rx="93.9" ry="95.5"/>
	<ellipse id="Ellipse_2" class="st2" cx="342.5" cy="92.2" rx="95.5" ry="92.2"/>
	<ellipse id="Ellipse_11" class="st3" cx="389.1" cy="309.2" rx="9" ry="8.7"/>
	<ellipse id="Ellipse_12" class="st1" cx="305" cy="309.4" rx="9" ry="8.7"/>
	<ellipse id="Ellipse_3" class="st3" cx="592.8" cy="342.5" rx="92.2" ry="95.5"/>
	<ellipse id="Ellipse_7" class="st4" cx="538.5" cy="532" rx="70.8" ry="70.8"/>
	<ellipse id="Ellipse_10" class="st5" cx="538.5" cy="151.5" rx="70.8" ry="72.5"/>
	<ellipse id="Ellipse_8" class="st6" cx="144.8" cy="532" rx="72.5" ry="70.8"/>
	<ellipse id="Ellipse_9" class="st7" cx="144.8" cy="151.5" rx="72.5" ry="72.5"/>
	<ellipse id="Ellipse_5" class="st8" cx="342.5" cy="592.9" rx="95.5" ry="92.2"/>
	<circle class="st9" cx="1883" cy="125" r="322"/>
</g>
<g id="Layer_2">
	<path class="st2" d="M234.8,331.9h15V324h-15v-14.6h-9.5V324h-7.4v7.8h7.4v35.7c0,0,0,5,2.6,8.6c1.4,1.9,5.4,3.8,7.2,4.2
		c5.8,1.3,14.6,1,14.6,1V373c0,0-8.5,0.4-10.9-0.4c-4.3-1.4-4-6.6-4-6.6V331.9z"/>
	<path class="st2" d="M276.9,326c-4.2,2.7-6.3,7.4-6.3,7.4v-9.2h-9.6v57h9.6V347c0,0,0-8.8,7.5-12.6c3.6-1.9,10.9-1.3,10.9-1.3V323
		C289.1,323,280.8,323.4,276.9,326z"/>
	<rect x="299.9" y="324.2" class="st2" width="9.6" height="57"/>
	<rect x="384.3" y="324.2" class="st2" width="9.6" height="57"/>
	<polygon class="st2" points="364.4,324.2 346.7,372 328.9,324.2 318.8,324.2 341,381.1 343.3,381.1 350.1,381.1 352.4,381.1 
		374.6,324.2 	"/>
	<path class="st2" d="M454.3,324.2v9.1c-5-6.1-12.4-10-20.6-10c-15.2,0-27.5,13.1-27.5,29.4c0,16.2,12.3,29.4,27.5,29.4
		c8.2,0,15.6-3.9,20.6-10v9.1h9.7v-57H454.3z M435.1,373.8c-10.6,0-19.2-9.5-19.2-21.2c0-11.7,8.6-21.2,19.2-21.2
		c10.6,0,19.2,9.5,19.2,21.1v0.1C454.3,364.3,445.7,373.8,435.1,373.8z"/>
</g>
</svg>
